<?xml version="1.0" encoding="UTF-8" standalone="no"?>
<svg
   width="16"
   height="16"
   fill="#1376c7"
   class="bi bi-code-slash"
   viewBox="0 0 16 16"
   version="1.1"
   id="svg4"
   sodipodi:docname="favicon.svg"
   inkscape:version="1.2.2 (732a01da63, 2022-12-09)"
   xmlns:inkscape="http://www.inkscape.org/namespaces/inkscape"
   xmlns:sodipodi="http://sodipodi.sourceforge.net/DTD/sodipodi-0.dtd"
   xmlns="http://www.w3.org/2000/svg"
   xmlns:svg="http://www.w3.org/2000/svg">
  <defs
     id="defs8" />
  <sodipodi:namedview
     id="namedview6"
     pagecolor="#ffffff"
     bordercolor="#000000"
     borderopacity="0.25"
     inkscape:showpageshadow="2"
     inkscape:pageopacity="0.0"
     inkscape:pagecheckerboard="0"
     inkscape:deskcolor="#d1d1d1"
     showgrid="false"
     showguides="true"
     inkscape:zoom="22.627417"
     inkscape:cx="0.64081552"
     inkscape:cy="8.3085047"
     inkscape:window-width="1920"
     inkscape:window-height="1009"
     inkscape:window-x="-8"
     inkscape:window-y="-8"
     inkscape:window-maximized="1"
     inkscape:current-layer="layer1">
    <sodipodi:guide
       position="0,16"
       orientation="0,16"
       id="guide354"
       inkscape:locked="false" />
    <sodipodi:guide
       position="16,16"
       orientation="16,0"
       id="guide356"
       inkscape:locked="false" />
    <sodipodi:guide
       position="16,0"
       orientation="0,-16"
       id="guide358"
       inkscape:locked="false" />
    <sodipodi:guide
       position="0,0"
       orientation="-16,0"
       id="guide360"
       inkscape:locked="false" />
  </sodipodi:namedview>
  <g
     inkscape:groupmode="layer"
     id="layer3"
     inkscape:label="Layer 2">
    <circle
       style="fill:#1376c7;fill-opacity:1;stroke:none;stroke-width:1.79704;stroke-linecap:round;stroke-linejoin:round;paint-order:fill markers stroke"
       id="path966"
       cx="8"
       cy="8"
       r="8" />
  </g>
  <g
     inkscape:groupmode="layer"
     id="layer1"
     inkscape:label="Layer 1"
     style="fill:#ffffff;fill-opacity:1">
    <path
       d="M10.478 1.647a.5.5 0 1 0-.956-.294l-4 13a.5.5 0 0 0 .956.294l4-13zM4.854 4.146a.5.5 0 0 1 0 .708L1.707 8l3.147 3.146a.5.5 0 0 1-.708.708l-3.5-3.5a.5.5 0 0 1 0-.708l3.5-3.5a.5.5 0 0 1 .708 0zm6.292 0a.5.5 0 0 0 0 .708L14.293 8l-3.147 3.146a.5.5 0 0 0 .708.708l3.5-3.5a.5.5 0 0 0 0-.708l-3.5-3.5a.5.5 0 0 0-.708 0z"
       id="path2"
       style="fill:#ffffff;fill-opacity:1" />
  </g>
</svg>
